# xmcd
#
# Track frame offsets: 
#        150
#        15000
#        29550
#        47100
#        69450
#        85050
#        101775
#        113325
#        128550
#        142500
#        162150
#        176100
#        195900
#        208050
#
# Disc length: 2973 seconds
#
# Revision: 0
# Processed by: cddbd v1.5.2PL0 Copyright (c) Steve Scherf et al.
# Submitted via: ExactAudioCopyFreeDBPlugin 1.0
#
DISCID=a80b9b0e
DTITLE=Jeff Pitchell - American Girl
DYEAR=2012
DGENRE=Blues
TTITLE0=Every Day
TTITLE1=T-Bone Shuffle
TTITLE2=Saturday Night
TTITLE3=Out In The Cold
TTITLE4=I Found Me
TTITLE5=Homework
TTITLE6=Hard Drivin' Man
TTITLE7=Prisoner Of Love
TTITLE8=Step Up
TTITLE9=My Jesus
TTITLE10=Seriously
TTITLE11=American Girl
TTITLE12=Beautifully Broken
TTITLE13=It Comes To Me Naturally (Bonus)
EXTD=with special guest Jay Geils
EXTT0=
EXTT1=
EXTT2=
EXTT3=
EXTT4=
EXTT5=
EXTT6=
EXTT7=
EXTT8=
EXTT9=
EXTT10=
EXTT11=
EXTT12=
EXTT13=
PLAYORDER=
